<svg xmlns="http://www.w3.org/2000/svg" viewBox="0 0 517.91 294.35"><defs><style>.cls-1{fill:#212950;}.cls-2{fill:#e52421;}</style></defs><g id="Layer_1" data-name="Layer 1"><path class="cls-1" d="M325.38,134.46l-10.93,29.15H297L318,108.37h17.87l5.12,27.5,10.42-27.5h17.31l-19.47,51.45s-4.88.58-8.94,1-9.67,1-9.67,1Z"/><path class="cls-1" d="M377.68,108.37h39.18l-5.11,13.33h-21.5L387.52,129h20.85l-5,13.34H382.41l-3,7.95h21.5l-3.41,9.32s-14.53-.87-18.5-.87c-8.65,0-20.82.65-20.82.65Z"/><path class="cls-1" d="M424.31,108.37H441.9L426.18,150h19.17l-5.25,13.66H422.6s-7.25-1.64-9.54-2c-3.59-.62-8.67-1.28-8.67-1.28Z"/><path class="cls-1" d="M171.74,87.16h-5l-6.86,18.06H142.18L163.25,50H188c10.61,0,18.1,6.71,16.86,16.15-1.22,9.2-8.84,16.9-15.75,19.22l1.65,19.88H171.87ZM186.41,67.7c.38-2.9-1.47-4.39-4.26-4.39h-6.33l-4,10.52h6.7C182.71,73.83,185.94,71.26,186.41,67.7Z"/><path class="cls-1" d="M239.93,49.06c15.73,0,24.63,9.44,22.92,22.36-2.06,15.66-16.41,34.79-37.53,34.79-15.92,0-24.72-9.44-23-22.44C204.37,68.19,218.71,49.06,239.93,49.06Zm-2.85,13.83c-8.37,0-15.64,12.76-16.66,20.46-.69,5.22,2.07,9,7.56,9,8.38,0,15.74-12.76,16.75-20.46C245.42,66.7,242.57,62.89,237.08,62.89Z"/><path class="cls-1" d="M297.1,75.23l-17.27,30h-18L268.23,50h18.52l-6.26,31.89L299.69,50H313l-4.86,31.89L326,50h19.17L309.7,105.22H291.65Z"/><path class="cls-1" d="M82.81,145.49c2.93,3.9,9,6.55,15,6.55,3.25,0,5.14-1.58,5.39-3.48s-2.24-3.48-5.83-5.22C91.1,140.52,82.5,136.55,83.76,127c1.19-9,11.39-18.63,26.56-18.63,8.19,0,16.31,2.65,21.15,7.62l-11.24,11.1c-2.89-3.48-8.33-5.31-12.79-5.31-3.17,0-4.77,1.58-5,3.32-.27,2,2.32,3.56,5.91,5.3,6.14,2.81,14.63,6.87,13.46,15.74-1.38,10.43-11.77,19.38-26.48,19.38-10.7,0-19.72-3.56-24-8.86Z"/><path class="cls-1" d="M140.75,109.3h39.19l-5.11,13.33h-21.5l-2.73,7.29h20.84l-5,13.34H145.49l-3,8H164l-5,13.33H119.69Z"/><path class="cls-1" d="M194.74,135.39l-10.93,29.15H166.32l21.06-55.24h17.87l5.12,27.5,10.42-27.5H238.1l-21,55.24H200.47Z"/><polygon class="cls-1" points="250.77 122.03 237.93 122.03 243.08 108.37 286.36 108.37 281.11 122.03 268.36 122.03 252.63 163.61 234.95 163.61 250.77 122.03"/><polygon class="cls-1" points="291.5 108.37 309.09 108.37 288.12 163.61 270.43 163.61 291.5 108.37"/><path class="cls-2" d="M150,208.33c52.91,1.51,120.23-8.84,198.35-22.61C460.24,166,497.41,245,497.41,245,456.2,118,312.87,178.17,187.31,189.74Z"/><path class="cls-2" d="M85.82,197.89c-56.57-19.38-59.63-56.6-59.63-56.6s21.26,31,70.61,43.94a184.06,184.06,0,0,0,25.3,4.68s-22.8,2.72-25.27,3.38S85.82,197.89,85.82,197.89Z"/><path class="cls-1" d="M63.31,238.49l82.27-34.92s-17.17,22.54-30.33,30.63-49.44,25.32-49.44,25.32-6.53,6-12.25-2.8-11-22-11-22-5.95-7.1,3.89-12,46.56-21.34,53.41-23,35.47-5.62,41.54-4.06Z"/><polygon class="cls-1" points="209.56 171.38 152.66 199.83 148.88 192.41 192.71 171.38 209.56 171.38"/><path class="cls-1" d="M479.45,244.48s-12.58-37.3-58.79-48.06c-57.76-13.44-91.81,4.23-91.81,4.23s50.39-4.51,86.87,4.48C460.39,216.15,479.45,244.48,479.45,244.48Z"/></g></svg>